<?xml version="1.0" encoding="UTF-8"?>
<svg id="Layer_1" data-name="Layer 1" xmlns="http://www.w3.org/2000/svg" viewBox="0 0 676.58 266.78">
  <path d="M373.79,157.75h0c-6.56,6.59-10.24,15.51-10.24,24.81v49.05c0,9.3,3.68,18.21,10.24,24.8h0c6.6,6.64,15.58,10.37,24.94,10.37h20.79c9.33,0,18.28-3.71,24.87-10.3l.05-.05c6.59-6.6,10.3-15.54,10.3-24.87v-48.96c0-9.33-3.71-18.28-10.3-24.87l-.05-.05c-6.6-6.59-15.54-10.3-24.87-10.3h-20.79c-9.36,0-18.33,3.73-24.93,10.36ZM387.37,243l-.04-.04c-3.03-3-4.73-7.09-4.73-11.35v-49.04c0-4.26,1.7-8.35,4.73-11.35l.04-.04c3-2.97,7.05-4.64,11.27-4.64h20.95c4.24,0,8.31,1.69,11.31,4.68h0c3,3,4.68,7.07,4.68,11.31v49.12c0,4.24-1.69,8.31-4.68,11.31h0c-3,3-7.07,4.68-11.31,4.68h-20.95c-4.22,0-8.27-1.67-11.27-4.64Z"/>
  <path d="M46.69,44.23L19.65,4.19c-1.41-2.09-3.76-3.34-6.28-3.34h-5.8C3.39.86,0,4.25,0,8.43v102.53c0,4.18,3.39,7.58,7.58,7.58h3.99c4.18,0,7.58-3.39,7.58-7.58v-51.09c0-7.58,9.9-10.46,13.97-4.06l9.68,15.24c1.39,2.19,3.8,3.51,6.39,3.51h7.48c2.59,0,5-1.32,6.39-3.51l9.77-15.34c4.07-6.39,13.97-3.51,13.97,4.07v51.17c0,4.18,3.39,7.58,7.58,7.58h3.91c4.18,0,7.58-3.39,7.58-7.58V8.43c0-4.18-3.39-7.58-7.58-7.58h-5.72c-2.52,0-4.87,1.25-6.28,3.34l-27.04,40.04c-3,4.45-9.55,4.45-12.56,0Z"/>
  <path d="M135.84,10.36h0c-6.56,6.59-10.24,15.51-10.24,24.81v49.05c0,9.3,3.68,18.21,10.24,24.8h0c6.6,6.64,15.58,10.37,24.94,10.37h20.79c9.33,0,18.28-3.71,24.87-10.3l.05-.05c6.59-6.6,10.3-15.54,10.3-24.87v-48.96c0-9.33-3.71-18.28-10.3-24.87l-.05-.05c-6.6-6.59-15.54-10.3-24.87-10.3h-20.79c-9.36,0-18.33,3.73-24.93,10.36ZM149.43,95.61l-.04-.04c-3.03-3-4.73-7.09-4.73-11.35v-49.04c0-4.26,1.7-8.35,4.73-11.35l.04-.04c3-2.97,7.05-4.64,11.27-4.64h20.95c4.24,0,8.31,1.69,11.31,4.68h0c3,3,4.68,7.07,4.68,11.31v49.12c0,4.24-1.69,8.31-4.68,11.31h0c-3,3-7.07,4.68-11.31,4.68h-20.95c-4.22,0-8.27-1.67-11.27-4.64Z"/>
  <path d="M476.28,157.77v98.63c0,5.26,4.27,9.53,9.53,9.53h56.39c2.53,0,4.96-1.01,6.75-2.8l20.09-20.16c1.73-1.74,2.73-4.07,2.78-6.53l1.1-52.68c.05-2.31-.74-4.56-2.23-6.33l-21.67-25.79c-1.81-2.15-4.48-3.4-7.29-3.4h-55.91c-5.26,0-9.53,4.27-9.53,9.53ZM495.42,237.26v-60.35c0-5.26,4.27-9.53,9.53-9.53h28.54c2.98,0,5.78,1.39,7.58,3.76l10.82,14.23c1.32,1.73,2,3.86,1.94,6.04l-1.05,37.19c-.07,2.44-1.07,4.76-2.8,6.48l-8.98,8.94c-1.79,1.78-4.2,2.77-6.72,2.77h-29.33c-5.26,0-9.53-4.27-9.53-9.53Z"/>
  <path d="M236.46,10.38v98.63c0,5.26,4.27,9.53,9.53,9.53h56.39c2.53,0,4.96-1.01,6.75-2.8l20.01-20.08c1.78-1.79,2.78-4.2,2.78-6.72V30.46c0-2.52-1-4.94-2.78-6.72l-20.01-20.08c-1.79-1.79-4.22-2.8-6.75-2.8h-56.39c-5.26,0-9.53,4.27-9.53,9.53ZM255.6,89.88V29.53c0-5.26,4.27-9.53,9.53-9.53h29.33c2.52,0,4.93,1,6.72,2.77l8.87,8.83c1.8,1.79,2.81,4.22,2.81,6.75v42.7c0,2.54-1.01,4.97-2.81,6.75l-8.87,8.83c-1.79,1.78-4.2,2.77-6.72,2.77h-29.33c-5.26,0-9.53-4.27-9.53-9.53Z"/>
  <path d="M382.17,74.22h40.13c5.26,0,9.53-4.27,9.53-9.53v-.09c0-5.26-4.27-9.53-9.53-9.53h-40.13c-5.26,0-9.53-4.27-9.53-9.53v-16.02c0-5.26,4.27-9.53,9.53-9.53h44.32c5.26,0,9.53-4.27,9.53-9.53v-.09c0-5.26-4.27-9.53-9.53-9.53h-63.46c-5.26,0-9.53,4.27-9.53,9.53v98.63c0,5.26,4.27,9.53,9.53,9.53h64.31c5.26,0,9.53-4.27,9.53-9.53v-.08c0-5.26-4.27-9.53-9.53-9.53h-45.17c-5.26,0-9.53-4.27-9.53-9.53v-6.13c0-5.26,4.27-9.53,9.53-9.53Z"/>
  <path d="M284.67,191.85l-26.19-38.63c-2.1-3.11-5.61-4.98-9.37-4.98h-.08c-6.24,0-11.31,5.06-11.31,11.31v99.11c0,4.01,3.25,7.27,7.27,7.27h4.6c4.01,0,7.27-3.25,7.27-7.27v-59.05c0-5.35,6.99-7.39,9.87-2.87l11,17.31c3.13,4.92,8.56,7.9,14.39,7.9h0c4,0,7.73-2.04,9.88-5.42l12.66-19.86c2.88-4.51,9.86-2.48,9.86,2.88v59.12c0,4.01,3.25,7.27,7.27,7.27h4.52c4.01,0,7.27-3.25,7.27-7.27v-99.11c0-6.24-5.06-11.31-11.31-11.31h0c-3.76,0-7.27,1.87-9.37,4.98l-26.18,38.63c-2.88,4.27-9.16,4.27-12.04,0Z"/>
  <path d="M612.36,237.26v-6.13c0-5.26,4.27-9.53,9.53-9.53h40.13c5.26,0,9.53-4.27,9.53-9.53v-.09c0-5.26-4.27-9.53-9.53-9.53h-40.13c-5.26,0-9.53-4.27-9.53-9.53v-16.02c0-5.26,4.27-9.53,9.53-9.53h44.31c5.26,0,9.53-4.27,9.53-9.53v-.09c0-5.26-4.27-9.53-9.53-9.53h-63.45c-5.26,0-9.53,4.27-9.53,9.53v98.63c0,5.26,4.27,9.53,9.53,9.53h64.31c5.26,0,9.53-4.27,9.53-9.53v-.08c0-5.26-4.27-9.53-9.53-9.53h-45.17c-5.26,0-9.53-4.27-9.53-9.53Z"/>
</svg>
